#N canvas 495 110 586 424 10;
#X text 13 10 prints "Hello world!" when banged.;
#X obj 124 329 output~;
#X obj 436 279 print;
#X obj 134 218 timestretch_beatmode~;
#X obj 260 260 list trim;
#X obj 473 76 openpanel;
#X obj 426 20 bng 16 250 50 0 empty empty empty 0 -8 0 10 #fcfcfc #000000 #000000;
#X obj 469 109 print;
#X obj 313 313 route mode;
#X obj 312 336 route attaque sustain;
#X obj 312 381 bng 16 250 50 0 empty empty attaque 0 -8 0 10 #fcfcfc #000000 #000000;
#X obj 372 380 bng 16 250 50 0 empty empty release 0 -8 0 10 #fcfcfc #000000 #000000;
#X msg 216 40 128;
#X msg 253 41 130;
#X msg 186 39 90;
#X obj 132 152 pack f s;
#X msg 130 183 play \$2 \$1, f 16;
#X msg 109 38 60;
#X msg 148 38 80;
#X msg 341 176 loop_mode \$1;
#X obj 340 153 hradio 16 1 0 3 empty empty empty 0 -8 0 10 #fcfcfc #000000 #000000 0;
#X msg 431 176 release_gard \$1;
#X obj 436 147 hsl 136 16 0 100 0 0 empty empty empty -2 -8 0 10 #fcfcfc #000000 #000000 0 1;
#X connect 3 0 1 0;
#X connect 3 1 4 0;
#X connect 3 2 2 0;
#X connect 4 0 8 0;
#X connect 5 0 15 1;
#X connect 5 0 7 0;
#X connect 6 0 5 0;
#X connect 8 0 9 0;
#X connect 9 0 10 0;
#X connect 9 1 11 0;
#X connect 12 0 15 0;
#X connect 13 0 15 0;
#X connect 14 0 15 0;
#X connect 15 0 16 0;
#X connect 16 0 3 0;
#X connect 17 0 15 0;
#X connect 18 0 15 0;
#X connect 19 0 3 0;
#X connect 20 0 19 0;
#X connect 22 0 21 0;
